# xmcd
#
# Track frame offsets: 
#        150
#        29887
#        75153
#        113265
#        153104
#        195440
#        232413
#        263569
#        295799
#        331955
#
# Disc length: 4795 seconds
#
# Revision: 0
# Processed by: cddbd v1.5.2PL0 Copyright (c) Steve Scherf et al.
# Submitted via: ExactAudioCopy v1.0b3
#
DISCID=7812b90a
DTITLE=Various Artist - 50 Eye-Trance Tracks - CD 4
DYEAR=1900
DGENRE=
TTITLE0=Setrise - Embrace Anthem 2009 (Original Mix)
TTITLE1=Michael Angelo and Jim - Daylight (Original Mix)
TTITLE2=Dima Krasnik Feat. Aminda - Airbreath (Original Mix)
TTITLE3=DK Project - Blue Skies (Original Mix)
TTITLE4=Suntory Vs. Facade - Kangai Muryo (Original Mix)
TTITLE5=Hernandes Feat. Stine Grove - Without You (Aura Linn Remix)
TTITLE6=Bas Van Den Eijken Vs. DJ Myde - Follow The Light (Six Feet Un
TTITLE6=der Remix)
TTITLE7=Torsten Fassbender Feat. Julie-Anne Melfi - Nobody Knows (Rene
TTITLE7=Ablaze Remix)
TTITLE8=Ian Buff and Franky Faith - Waves
TTITLE9=Blue Tente - Let You Go (Oliver Imseng Remix)
EXTD=
EXTT0=
EXTT1=
EXTT2=
EXTT3=
EXTT4=
EXTT5=
EXTT6=
EXTT7=
EXTT8=
EXTT9=
PLAYORDER=
